<?xml version="1.0" standalone="no"?>
<!DOCTYPE svg PUBLIC "-//W3C//DTD SVG 20010904//EN"
 "http://www.w3.org/TR/2001/REC-SVG-20010904/DTD/svg10.dtd">
<svg version="1.0" xmlns="http://www.w3.org/2000/svg"
 width="700.000000pt" height="700.000000pt" viewBox="0 0 700.000000 700.000000"
 preserveAspectRatio="xMidYMid meet">
<metadata>
Created by potrace 1.14, written by Peter Selinger 2001-2017
</metadata>
<g transform="translate(0.000000,700.000000) scale(0.100000,-0.100000)"
fill="#000000" stroke="none">
<path d="M700 6461 c-75 -23 -127 -70 -160 -144 -21 -46 -21 -61 -21 -485 0
-240 2 -446 5 -457 2 -11 5 -25 5 -31 1 -6 12 -27 25 -46 13 -20 29 -53 36
-74 24 -71 56 -110 115 -139 50 -25 65 -27 170 -27 l115 0 -36 -62 c-68 -117
-182 -362 -229 -491 -65 -179 -127 -427 -150 -595 -21 -157 -28 -577 -12 -710
4 -36 10 -85 13 -110 11 -90 56 -297 85 -400 117 -402 322 -785 592 -1105 136
-161 390 -390 574 -517 41 -28 72 -56 70 -62 -2 -7 -51 -11 -145 -11 -174 0
-175 -1 -178 -107 -2 -114 23 -193 85 -261 23 -25 23 -27 5 -28 -10 0 -170 0
-354 0 -216 -1 -339 -4 -347 -11 -19 -15 -16 -52 5 -63 11 -7 827 -10 2478
-10 2039 1 2465 3 2478 14 19 16 21 45 4 59 -8 6 -103 10 -246 10 -129 0 -236
2 -238 5 -3 3 6 16 20 30 55 55 84 149 81 265 -3 94 -7 96 -175 97 l-140 0 0
56 0 56 102 79 c131 101 360 329 467 464 179 224 346 509 444 760 43 109 102
290 112 339 2 12 7 31 10 41 8 24 11 37 34 155 38 196 46 292 46 560 0 127 -4
259 -8 295 -5 36 -10 85 -13 109 -2 24 -11 76 -19 115 -8 39 -16 83 -19 97 -2
15 -18 78 -35 142 -52 196 -115 363 -204 542 -201 403 -448 707 -828 1020 -51
42 -169 125 -178 125 -5 0 -11 4 -13 8 -13 34 -407 238 -591 306 -190 71 -483
145 -642 162 -32 3 -68 8 -79 11 -38 9 -510 12 -586 3 -99 -11 -178 -21 -204
-26 -12 -2 -48 -9 -81 -15 -33 -6 -96 -19 -140 -31 -44 -11 -87 -21 -95 -23
-8 -2 -64 -19 -125 -39 -60 -19 -110 -34 -111 -33 -1 1 -13 25 -28 54 -30 60
-94 116 -151 132 -46 13 -1554 14 -1595 2z"/>
<path d="M525 583 c-19 -19 -19 -37 1 -54 22 -18 277 -17 299 1 20 17 19 47
-3 59 -10 5 -77 9 -150 9 -103 0 -136 -3 -147 -15z"/>
<path d="M6030 576 c-9 -26 3 -52 27 -57 10 -3 105 -4 211 -3 156 0 195 3 203
15 14 23 10 48 -9 58 -10 5 -107 9 -221 9 -197 -1 -203 -1 -211 -22z"/>
</g>
</svg>
